<svg xmlns="http://www.w3.org/2000/svg" viewBox="0 0 136 128" width="136" height="128">
  <defs><linearGradient id="ar" x1="0" y1="0" x2="1" y2="0.5"><stop offset="0%" stop-color="#00e676"/><stop offset="30%" stop-color="#00bcd4"/><stop offset="60%" stop-color="#7c4dff"/><stop offset="100%" stop-color="#e040fb"/></linearGradient><filter id="ag"><feGaussianBlur in="SourceGraphic" stdDeviation="2" result="b"/><feMerge><feMergeNode in="b"/><feMergeNode in="SourceGraphic"/></feMerge></filter></defs>
<rect x="40" y="24" width="8" height="8" fill="url(#ar)" stroke="rgba(255,255,255,0.15)" stroke-width="0.5" filter="url(#ag)"/>
    <rect x="48" y="24" width="8" height="8" fill="url(#ar)" stroke="rgba(255,255,255,0.15)" stroke-width="0.5" filter="url(#ag)"/>
    <rect x="80" y="24" width="8" height="8" fill="url(#ar)" stroke="rgba(255,255,255,0.15)" stroke-width="0.5" filter="url(#ag)"/>
    <rect x="88" y="24" width="8" height="8" fill="url(#ar)" stroke="rgba(255,255,255,0.15)" stroke-width="0.5" filter="url(#ag)"/>
    <rect x="32" y="32" width="8" height="8" fill="url(#ar)" stroke="rgba(255,255,255,0.15)" stroke-width="0.5" filter="url(#ag)"/>
    <rect x="40" y="32" width="8" height="8" fill="url(#ar)" stroke="rgba(255,255,255,0.15)" stroke-width="0.5" filter="url(#ag)"/>
    <rect x="48" y="32" width="8" height="8" fill="url(#ar)" stroke="rgba(255,255,255,0.15)" stroke-width="0.5" filter="url(#ag)"/>
    <rect x="56" y="32" width="8" height="8" fill="url(#ar)" stroke="rgba(255,255,255,0.15)" stroke-width="0.5" filter="url(#ag)"/>
    <rect x="64" y="32" width="8" height="8" fill="url(#ar)" stroke="rgba(255,255,255,0.15)" stroke-width="0.5" filter="url(#ag)"/>
    <rect x="72" y="32" width="8" height="8" fill="url(#ar)" stroke="rgba(255,255,255,0.15)" stroke-width="0.5" filter="url(#ag)"/>
    <rect x="80" y="32" width="8" height="8" fill="url(#ar)" stroke="rgba(255,255,255,0.15)" stroke-width="0.5" filter="url(#ag)"/>
    <rect x="88" y="32" width="8" height="8" fill="url(#ar)" stroke="rgba(255,255,255,0.15)" stroke-width="0.5" filter="url(#ag)"/>
    <rect x="96" y="32" width="8" height="8" fill="url(#ar)" stroke="rgba(255,255,255,0.15)" stroke-width="0.5" filter="url(#ag)"/>
    <rect x="24" y="40" width="8" height="8" fill="url(#ar)" stroke="rgba(255,255,255,0.15)" stroke-width="0.5" filter="url(#ag)"/>
    <rect x="32" y="40" width="8" height="8" fill="url(#ar)" stroke="rgba(255,255,255,0.15)" stroke-width="0.5" filter="url(#ag)"/>
    <rect x="40" y="40" width="8" height="8" fill="url(#ar)" stroke="rgba(255,255,255,0.15)" stroke-width="0.5" filter="url(#ag)"/>
    <rect x="48" y="40" width="8" height="8" fill="url(#ar)" stroke="rgba(255,255,255,0.15)" stroke-width="0.5" filter="url(#ag)"/>
    <rect x="56" y="40" width="8" height="8" fill="url(#ar)" stroke="rgba(255,255,255,0.15)" stroke-width="0.5" filter="url(#ag)"/>
    <rect x="64" y="40" width="8" height="8" fill="url(#ar)" stroke="rgba(255,255,255,0.15)" stroke-width="0.5" filter="url(#ag)"/>
    <rect x="72" y="40" width="8" height="8" fill="url(#ar)" stroke="rgba(255,255,255,0.15)" stroke-width="0.5" filter="url(#ag)"/>
    <rect x="80" y="40" width="8" height="8" fill="url(#ar)" stroke="rgba(255,255,255,0.15)" stroke-width="0.5" filter="url(#ag)"/>
    <rect x="88" y="40" width="8" height="8" fill="url(#ar)" stroke="rgba(255,255,255,0.15)" stroke-width="0.5" filter="url(#ag)"/>
    <rect x="96" y="40" width="8" height="8" fill="url(#ar)" stroke="rgba(255,255,255,0.15)" stroke-width="0.5" filter="url(#ag)"/>
    <rect x="104" y="40" width="8" height="8" fill="url(#ar)" stroke="rgba(255,255,255,0.15)" stroke-width="0.5" filter="url(#ag)"/>
    <rect x="24" y="48" width="8" height="8" fill="url(#ar)" stroke="rgba(255,255,255,0.15)" stroke-width="0.5" filter="url(#ag)"/>
    <rect x="32" y="48" width="8" height="8" fill="url(#ar)" stroke="rgba(255,255,255,0.15)" stroke-width="0.5" filter="url(#ag)"/>
    <rect x="56" y="48" width="8" height="8" fill="url(#ar)" stroke="rgba(255,255,255,0.15)" stroke-width="0.5" filter="url(#ag)"/>
    <rect x="64" y="48" width="8" height="8" fill="url(#ar)" stroke="rgba(255,255,255,0.15)" stroke-width="0.5" filter="url(#ag)"/>
    <rect x="72" y="48" width="8" height="8" fill="url(#ar)" stroke="rgba(255,255,255,0.15)" stroke-width="0.5" filter="url(#ag)"/>
    <rect x="96" y="48" width="8" height="8" fill="url(#ar)" stroke="rgba(255,255,255,0.15)" stroke-width="0.5" filter="url(#ag)"/>
    <rect x="104" y="48" width="8" height="8" fill="url(#ar)" stroke="rgba(255,255,255,0.15)" stroke-width="0.5" filter="url(#ag)"/>
    <rect x="24" y="56" width="8" height="8" fill="url(#ar)" stroke="rgba(255,255,255,0.15)" stroke-width="0.5" filter="url(#ag)"/>
    <rect x="32" y="56" width="8" height="8" fill="url(#ar)" stroke="rgba(255,255,255,0.15)" stroke-width="0.5" filter="url(#ag)"/>
    <rect x="40" y="56" width="8" height="8" fill="url(#ar)" stroke="rgba(255,255,255,0.15)" stroke-width="0.5" filter="url(#ag)"/>
    <rect x="48" y="56" width="8" height="8" fill="url(#ar)" stroke="rgba(255,255,255,0.15)" stroke-width="0.5" filter="url(#ag)"/>
    <rect x="56" y="56" width="8" height="8" fill="url(#ar)" stroke="rgba(255,255,255,0.15)" stroke-width="0.5" filter="url(#ag)"/>
    <rect x="64" y="56" width="8" height="8" fill="url(#ar)" stroke="rgba(255,255,255,0.15)" stroke-width="0.5" filter="url(#ag)"/>
    <rect x="72" y="56" width="8" height="8" fill="url(#ar)" stroke="rgba(255,255,255,0.15)" stroke-width="0.5" filter="url(#ag)"/>
    <rect x="80" y="56" width="8" height="8" fill="url(#ar)" stroke="rgba(255,255,255,0.15)" stroke-width="0.5" filter="url(#ag)"/>
    <rect x="88" y="56" width="8" height="8" fill="url(#ar)" stroke="rgba(255,255,255,0.15)" stroke-width="0.5" filter="url(#ag)"/>
    <rect x="96" y="56" width="8" height="8" fill="url(#ar)" stroke="rgba(255,255,255,0.15)" stroke-width="0.5" filter="url(#ag)"/>
    <rect x="104" y="56" width="8" height="8" fill="url(#ar)" stroke="rgba(255,255,255,0.15)" stroke-width="0.5" filter="url(#ag)"/>
    <rect x="24" y="64" width="8" height="8" fill="url(#ar)" stroke="rgba(255,255,255,0.15)" stroke-width="0.5" filter="url(#ag)"/>
    <rect x="32" y="64" width="8" height="8" fill="url(#ar)" stroke="rgba(255,255,255,0.15)" stroke-width="0.5" filter="url(#ag)"/>
    <rect x="40" y="64" width="8" height="8" fill="url(#ar)" stroke="rgba(255,255,255,0.15)" stroke-width="0.5" filter="url(#ag)"/>
    <rect x="48" y="64" width="8" height="8" fill="url(#ar)" stroke="rgba(255,255,255,0.15)" stroke-width="0.5" filter="url(#ag)"/>
    <rect x="56" y="64" width="8" height="8" fill="url(#ar)" stroke="rgba(255,255,255,0.15)" stroke-width="0.5" filter="url(#ag)"/>
    <rect x="64" y="64" width="8" height="8" fill="url(#ar)" stroke="rgba(255,255,255,0.15)" stroke-width="0.5" filter="url(#ag)"/>
    <rect x="72" y="64" width="8" height="8" fill="url(#ar)" stroke="rgba(255,255,255,0.15)" stroke-width="0.5" filter="url(#ag)"/>
    <rect x="80" y="64" width="8" height="8" fill="url(#ar)" stroke="rgba(255,255,255,0.15)" stroke-width="0.5" filter="url(#ag)"/>
    <rect x="88" y="64" width="8" height="8" fill="url(#ar)" stroke="rgba(255,255,255,0.15)" stroke-width="0.5" filter="url(#ag)"/>
    <rect x="96" y="64" width="8" height="8" fill="url(#ar)" stroke="rgba(255,255,255,0.15)" stroke-width="0.5" filter="url(#ag)"/>
    <rect x="104" y="64" width="8" height="8" fill="url(#ar)" stroke="rgba(255,255,255,0.15)" stroke-width="0.5" filter="url(#ag)"/>
    <rect x="32" y="72" width="8" height="8" fill="url(#ar)" stroke="rgba(255,255,255,0.15)" stroke-width="0.5" filter="url(#ag)"/>
    <rect x="40" y="72" width="8" height="8" fill="url(#ar)" stroke="rgba(255,255,255,0.15)" stroke-width="0.5" filter="url(#ag)"/>
    <rect x="48" y="72" width="8" height="8" fill="url(#ar)" stroke="rgba(255,255,255,0.15)" stroke-width="0.5" filter="url(#ag)"/>
    <rect x="56" y="72" width="8" height="8" fill="url(#ar)" stroke="rgba(255,255,255,0.15)" stroke-width="0.5" filter="url(#ag)"/>
    <rect x="64" y="72" width="8" height="8" fill="url(#ar)" stroke="rgba(255,255,255,0.15)" stroke-width="0.5" filter="url(#ag)"/>
    <rect x="72" y="72" width="8" height="8" fill="url(#ar)" stroke="rgba(255,255,255,0.15)" stroke-width="0.5" filter="url(#ag)"/>
    <rect x="80" y="72" width="8" height="8" fill="url(#ar)" stroke="rgba(255,255,255,0.15)" stroke-width="0.5" filter="url(#ag)"/>
    <rect x="88" y="72" width="8" height="8" fill="url(#ar)" stroke="rgba(255,255,255,0.15)" stroke-width="0.5" filter="url(#ag)"/>
    <rect x="96" y="72" width="8" height="8" fill="url(#ar)" stroke="rgba(255,255,255,0.15)" stroke-width="0.5" filter="url(#ag)"/>
    <rect x="40" y="80" width="8" height="8" fill="url(#ar)" stroke="rgba(255,255,255,0.15)" stroke-width="0.5" filter="url(#ag)"/>
    <rect x="48" y="80" width="8" height="8" fill="url(#ar)" stroke="rgba(255,255,255,0.15)" stroke-width="0.5" filter="url(#ag)"/>
    <rect x="80" y="80" width="8" height="8" fill="url(#ar)" stroke="rgba(255,255,255,0.15)" stroke-width="0.5" filter="url(#ag)"/>
    <rect x="88" y="80" width="8" height="8" fill="url(#ar)" stroke="rgba(255,255,255,0.15)" stroke-width="0.5" filter="url(#ag)"/>
    <rect x="40" y="88" width="8" height="8" fill="url(#ar)" stroke="rgba(255,255,255,0.15)" stroke-width="0.5" filter="url(#ag)"/>
    <rect x="48" y="88" width="8" height="8" fill="url(#ar)" stroke="rgba(255,255,255,0.15)" stroke-width="0.5" filter="url(#ag)"/>
    <rect x="80" y="88" width="8" height="8" fill="url(#ar)" stroke="rgba(255,255,255,0.15)" stroke-width="0.5" filter="url(#ag)"/>
    <rect x="88" y="88" width="8" height="8" fill="url(#ar)" stroke="rgba(255,255,255,0.15)" stroke-width="0.5" filter="url(#ag)"/>
    <rect x="40" y="48" width="8" height="8" fill="#001a0f"/>
    <rect x="48" y="48" width="8" height="8" fill="#001a0f"/>
    <rect x="80" y="48" width="8" height="8" fill="#001a0f"/>
    <rect x="88" y="48" width="8" height="8" fill="#001a0f"/>
    
    
</svg>