<svg xmlns="http://www.w3.org/2000/svg" viewBox="0 0 136 128" width="32" height="32">
  <defs><linearGradient id="hl" x1="0" y1="0" x2="1" y2="1"><stop offset="0%" stop-color="#ff4081"/><stop offset="25%" stop-color="#e040fb"/><stop offset="50%" stop-color="#7c4dff"/><stop offset="75%" stop-color="#00e5ff"/><stop offset="100%" stop-color="#69f0ae"/></linearGradient></defs>
  <g id="mascot">
    <g id="body">
    <rect x="40" y="24" width="8" height="8" fill="url(#hl)"/>
    <rect x="48" y="24" width="8" height="8" fill="url(#hl)"/>
    <rect x="80" y="24" width="8" height="8" fill="url(#hl)"/>
    <rect x="88" y="24" width="8" height="8" fill="url(#hl)"/>
    <rect x="32" y="32" width="8" height="8" fill="url(#hl)"/>
    <rect x="40" y="32" width="8" height="8" fill="url(#hl)"/>
    <rect x="48" y="32" width="8" height="8" fill="url(#hl)"/>
    <rect x="56" y="32" width="8" height="8" fill="url(#hl)"/>
    <rect x="64" y="32" width="8" height="8" fill="url(#hl)"/>
    <rect x="72" y="32" width="8" height="8" fill="url(#hl)"/>
    <rect x="80" y="32" width="8" height="8" fill="url(#hl)"/>
    <rect x="88" y="32" width="8" height="8" fill="url(#hl)"/>
    <rect x="96" y="32" width="8" height="8" fill="url(#hl)"/>
    <rect x="24" y="40" width="8" height="8" fill="url(#hl)"/>
    <rect x="32" y="40" width="8" height="8" fill="url(#hl)"/>
    <rect x="40" y="40" width="8" height="8" fill="url(#hl)"/>
    <rect x="48" y="40" width="8" height="8" fill="url(#hl)"/>
    <rect x="56" y="40" width="8" height="8" fill="url(#hl)"/>
    <rect x="64" y="40" width="8" height="8" fill="url(#hl)"/>
    <rect x="72" y="40" width="8" height="8" fill="url(#hl)"/>
    <rect x="80" y="40" width="8" height="8" fill="url(#hl)"/>
    <rect x="88" y="40" width="8" height="8" fill="url(#hl)"/>
    <rect x="96" y="40" width="8" height="8" fill="url(#hl)"/>
    <rect x="104" y="40" width="8" height="8" fill="url(#hl)"/>
    <rect x="24" y="48" width="8" height="8" fill="url(#hl)"/>
    <rect x="32" y="48" width="8" height="8" fill="url(#hl)"/>
    <rect x="56" y="48" width="8" height="8" fill="url(#hl)"/>
    <rect x="64" y="48" width="8" height="8" fill="url(#hl)"/>
    <rect x="72" y="48" width="8" height="8" fill="url(#hl)"/>
    <rect x="96" y="48" width="8" height="8" fill="url(#hl)"/>
    <rect x="104" y="48" width="8" height="8" fill="url(#hl)"/>
    <rect x="24" y="56" width="8" height="8" fill="url(#hl)"/>
    <rect x="32" y="56" width="8" height="8" fill="url(#hl)"/>
    <rect x="40" y="56" width="8" height="8" fill="url(#hl)"/>
    <rect x="48" y="56" width="8" height="8" fill="url(#hl)"/>
    <rect x="56" y="56" width="8" height="8" fill="url(#hl)"/>
    <rect x="64" y="56" width="8" height="8" fill="url(#hl)"/>
    <rect x="72" y="56" width="8" height="8" fill="url(#hl)"/>
    <rect x="80" y="56" width="8" height="8" fill="url(#hl)"/>
    <rect x="88" y="56" width="8" height="8" fill="url(#hl)"/>
    <rect x="96" y="56" width="8" height="8" fill="url(#hl)"/>
    <rect x="104" y="56" width="8" height="8" fill="url(#hl)"/>
    <rect x="24" y="64" width="8" height="8" fill="url(#hl)"/>
    <rect x="32" y="64" width="8" height="8" fill="url(#hl)"/>
    <rect x="40" y="64" width="8" height="8" fill="url(#hl)"/>
    <rect x="48" y="64" width="8" height="8" fill="url(#hl)"/>
    <rect x="56" y="64" width="8" height="8" fill="url(#hl)"/>
    <rect x="64" y="64" width="8" height="8" fill="url(#hl)"/>
    <rect x="72" y="64" width="8" height="8" fill="url(#hl)"/>
    <rect x="80" y="64" width="8" height="8" fill="url(#hl)"/>
    <rect x="88" y="64" width="8" height="8" fill="url(#hl)"/>
    <rect x="96" y="64" width="8" height="8" fill="url(#hl)"/>
    <rect x="104" y="64" width="8" height="8" fill="url(#hl)"/>
    <rect x="32" y="72" width="8" height="8" fill="url(#hl)"/>
    <rect x="40" y="72" width="8" height="8" fill="url(#hl)"/>
    <rect x="48" y="72" width="8" height="8" fill="url(#hl)"/>
    <rect x="56" y="72" width="8" height="8" fill="url(#hl)"/>
    <rect x="64" y="72" width="8" height="8" fill="url(#hl)"/>
    <rect x="72" y="72" width="8" height="8" fill="url(#hl)"/>
    <rect x="80" y="72" width="8" height="8" fill="url(#hl)"/>
    <rect x="88" y="72" width="8" height="8" fill="url(#hl)"/>
    <rect x="96" y="72" width="8" height="8" fill="url(#hl)"/>
    <rect x="40" y="80" width="8" height="8" fill="url(#hl)"/>
    <rect x="48" y="80" width="8" height="8" fill="url(#hl)"/>
    <rect x="80" y="80" width="8" height="8" fill="url(#hl)"/>
    <rect x="88" y="80" width="8" height="8" fill="url(#hl)"/>
    <rect x="40" y="88" width="8" height="8" fill="url(#hl)"/>
    <rect x="48" y="88" width="8" height="8" fill="url(#hl)"/>
    <rect x="80" y="88" width="8" height="8" fill="url(#hl)"/>
    <rect x="88" y="88" width="8" height="8" fill="url(#hl)"/>
    </g>
    <g id="eyes">
    <rect x="40" y="48" width="8" height="8" fill="#0a0020"/>
    <rect x="48" y="48" width="8" height="8" fill="#0a0020"/>
    <rect x="80" y="48" width="8" height="8" fill="#0a0020"/>
    <rect x="88" y="48" width="8" height="8" fill="#0a0020"/>
    </g>
  </g>
</svg>