<svg xmlns="http://www.w3.org/2000/svg" viewBox="0 0 136 128" width="136" height="128">
  <defs><filter id="sgl"><feGaussianBlur in="SourceGraphic" stdDeviation="1.5" result="b"/><feMerge><feMergeNode in="b"/><feMergeNode in="SourceGraphic"/></feMerge></filter></defs>
  <g transform="translate(68,56)">
  <g id="mascot">
    <animateTransform attributeName="transform" type="scale" values="1;1.015;1" dur="3s" repeatCount="indefinite"/>
    <g transform="translate(-68,-56)">
    <g id="body">
    <rect x="40" y="24" width="8" height="8" fill="#e0f7fa" stroke="#000" stroke-opacity="0.2" stroke-width="0.5"/>
    <rect x="48" y="24" width="8" height="8" fill="#e0f7fa" stroke="#000" stroke-opacity="0.2" stroke-width="0.5"/>
    <rect x="80" y="24" width="8" height="8" fill="#e0f7fa" stroke="#000" stroke-opacity="0.2" stroke-width="0.5"/>
    <rect x="88" y="24" width="8" height="8" fill="#e0f7fa" stroke="#000" stroke-opacity="0.2" stroke-width="0.5"/>
    <rect x="32" y="32" width="8" height="8" fill="#e0f7fa" stroke="#000" stroke-opacity="0.2" stroke-width="0.5"/>
    <rect x="40" y="32" width="8" height="8" fill="#e0f7fa" stroke="#000" stroke-opacity="0.2" stroke-width="0.5"/>
    <rect x="48" y="32" width="8" height="8" fill="#e0f7fa" stroke="#000" stroke-opacity="0.2" stroke-width="0.5"/>
    <rect x="56" y="32" width="8" height="8" fill="#e0f7fa" stroke="#000" stroke-opacity="0.2" stroke-width="0.5"/>
    <rect x="64" y="32" width="8" height="8" fill="#e0f7fa" stroke="#000" stroke-opacity="0.2" stroke-width="0.5"/>
    <rect x="72" y="32" width="8" height="8" fill="#e0f7fa" stroke="#000" stroke-opacity="0.2" stroke-width="0.5"/>
    <rect x="80" y="32" width="8" height="8" fill="#e0f7fa" stroke="#000" stroke-opacity="0.2" stroke-width="0.5"/>
    <rect x="88" y="32" width="8" height="8" fill="#e0f7fa" stroke="#000" stroke-opacity="0.2" stroke-width="0.5"/>
    <rect x="96" y="32" width="8" height="8" fill="#e0f7fa" stroke="#000" stroke-opacity="0.2" stroke-width="0.5"/>
    <rect x="24" y="40" width="8" height="8" fill="#e0f7fa" stroke="#000" stroke-opacity="0.2" stroke-width="0.5"/>
    <rect x="32" y="40" width="8" height="8" fill="#e0f7fa" stroke="#000" stroke-opacity="0.2" stroke-width="0.5"/>
    <rect x="40" y="40" width="8" height="8" fill="#e0f7fa" stroke="#000" stroke-opacity="0.2" stroke-width="0.5"/>
    <rect x="48" y="40" width="8" height="8" fill="#e0f7fa" stroke="#000" stroke-opacity="0.2" stroke-width="0.5"/>
    <rect x="56" y="40" width="8" height="8" fill="#e0f7fa" stroke="#000" stroke-opacity="0.2" stroke-width="0.5"/>
    <rect x="64" y="40" width="8" height="8" fill="#e0f7fa" stroke="#000" stroke-opacity="0.2" stroke-width="0.5"/>
    <rect x="72" y="40" width="8" height="8" fill="#e0f7fa" stroke="#000" stroke-opacity="0.2" stroke-width="0.5"/>
    <rect x="80" y="40" width="8" height="8" fill="#e0f7fa" stroke="#000" stroke-opacity="0.2" stroke-width="0.5"/>
    <rect x="88" y="40" width="8" height="8" fill="#e0f7fa" stroke="#000" stroke-opacity="0.2" stroke-width="0.5"/>
    <rect x="96" y="40" width="8" height="8" fill="#e0f7fa" stroke="#000" stroke-opacity="0.2" stroke-width="0.5"/>
    <rect x="104" y="40" width="8" height="8" fill="#e0f7fa" stroke="#000" stroke-opacity="0.2" stroke-width="0.5"/>
    <rect x="24" y="48" width="8" height="8" fill="#e0f7fa" stroke="#000" stroke-opacity="0.2" stroke-width="0.5"/>
    <rect x="32" y="48" width="8" height="8" fill="#e0f7fa" stroke="#000" stroke-opacity="0.2" stroke-width="0.5"/>
    <rect x="56" y="48" width="8" height="8" fill="#e0f7fa" stroke="#000" stroke-opacity="0.2" stroke-width="0.5"/>
    <rect x="64" y="48" width="8" height="8" fill="#e0f7fa" stroke="#000" stroke-opacity="0.2" stroke-width="0.5"/>
    <rect x="72" y="48" width="8" height="8" fill="#e0f7fa" stroke="#000" stroke-opacity="0.2" stroke-width="0.5"/>
    <rect x="96" y="48" width="8" height="8" fill="#e0f7fa" stroke="#000" stroke-opacity="0.2" stroke-width="0.5"/>
    <rect x="104" y="48" width="8" height="8" fill="#e0f7fa" stroke="#000" stroke-opacity="0.2" stroke-width="0.5"/>
    <rect x="24" y="56" width="8" height="8" fill="#e0f7fa" stroke="#000" stroke-opacity="0.2" stroke-width="0.5"/>
    <rect x="32" y="56" width="8" height="8" fill="#e0f7fa" stroke="#000" stroke-opacity="0.2" stroke-width="0.5"/>
    <rect x="40" y="56" width="8" height="8" fill="#e0f7fa" stroke="#000" stroke-opacity="0.2" stroke-width="0.5"/>
    <rect x="48" y="56" width="8" height="8" fill="#e0f7fa" stroke="#000" stroke-opacity="0.2" stroke-width="0.5"/>
    <rect x="56" y="56" width="8" height="8" fill="#e0f7fa" stroke="#000" stroke-opacity="0.2" stroke-width="0.5"/>
    <rect x="64" y="56" width="8" height="8" fill="#e0f7fa" stroke="#000" stroke-opacity="0.2" stroke-width="0.5"/>
    <rect x="72" y="56" width="8" height="8" fill="#e0f7fa" stroke="#000" stroke-opacity="0.2" stroke-width="0.5"/>
    <rect x="80" y="56" width="8" height="8" fill="#e0f7fa" stroke="#000" stroke-opacity="0.2" stroke-width="0.5"/>
    <rect x="88" y="56" width="8" height="8" fill="#e0f7fa" stroke="#000" stroke-opacity="0.2" stroke-width="0.5"/>
    <rect x="96" y="56" width="8" height="8" fill="#e0f7fa" stroke="#000" stroke-opacity="0.2" stroke-width="0.5"/>
    <rect x="104" y="56" width="8" height="8" fill="#e0f7fa" stroke="#000" stroke-opacity="0.2" stroke-width="0.5"/>
    <rect x="24" y="64" width="8" height="8" fill="#e0f7fa" stroke="#000" stroke-opacity="0.2" stroke-width="0.5"/>
    <rect x="32" y="64" width="8" height="8" fill="#e0f7fa" stroke="#000" stroke-opacity="0.2" stroke-width="0.5"/>
    <rect x="40" y="64" width="8" height="8" fill="#e0f7fa" stroke="#000" stroke-opacity="0.2" stroke-width="0.5"/>
    <rect x="48" y="64" width="8" height="8" fill="#e0f7fa" stroke="#000" stroke-opacity="0.2" stroke-width="0.5"/>
    <rect x="56" y="64" width="8" height="8" fill="#e0f7fa" stroke="#000" stroke-opacity="0.2" stroke-width="0.5"/>
    <rect x="64" y="64" width="8" height="8" fill="#e0f7fa" stroke="#000" stroke-opacity="0.2" stroke-width="0.5"/>
    <rect x="72" y="64" width="8" height="8" fill="#e0f7fa" stroke="#000" stroke-opacity="0.2" stroke-width="0.5"/>
    <rect x="80" y="64" width="8" height="8" fill="#e0f7fa" stroke="#000" stroke-opacity="0.2" stroke-width="0.5"/>
    <rect x="88" y="64" width="8" height="8" fill="#e0f7fa" stroke="#000" stroke-opacity="0.2" stroke-width="0.5"/>
    <rect x="96" y="64" width="8" height="8" fill="#e0f7fa" stroke="#000" stroke-opacity="0.2" stroke-width="0.5"/>
    <rect x="104" y="64" width="8" height="8" fill="#e0f7fa" stroke="#000" stroke-opacity="0.2" stroke-width="0.5"/>
    <rect x="32" y="72" width="8" height="8" fill="#e0f7fa" stroke="#000" stroke-opacity="0.2" stroke-width="0.5"/>
    <rect x="40" y="72" width="8" height="8" fill="#e0f7fa" stroke="#000" stroke-opacity="0.2" stroke-width="0.5"/>
    <rect x="48" y="72" width="8" height="8" fill="#e0f7fa" stroke="#000" stroke-opacity="0.2" stroke-width="0.5"/>
    <rect x="56" y="72" width="8" height="8" fill="#e0f7fa" stroke="#000" stroke-opacity="0.2" stroke-width="0.5"/>
    <rect x="64" y="72" width="8" height="8" fill="#e0f7fa" stroke="#000" stroke-opacity="0.2" stroke-width="0.5"/>
    <rect x="72" y="72" width="8" height="8" fill="#e0f7fa" stroke="#000" stroke-opacity="0.2" stroke-width="0.5"/>
    <rect x="80" y="72" width="8" height="8" fill="#e0f7fa" stroke="#000" stroke-opacity="0.2" stroke-width="0.5"/>
    <rect x="88" y="72" width="8" height="8" fill="#e0f7fa" stroke="#000" stroke-opacity="0.2" stroke-width="0.5"/>
    <rect x="96" y="72" width="8" height="8" fill="#e0f7fa" stroke="#000" stroke-opacity="0.2" stroke-width="0.5"/>
    <rect x="40" y="80" width="8" height="8" fill="#e0f7fa" stroke="#000" stroke-opacity="0.2" stroke-width="0.5"/>
    <rect x="48" y="80" width="8" height="8" fill="#e0f7fa" stroke="#000" stroke-opacity="0.2" stroke-width="0.5"/>
    <rect x="80" y="80" width="8" height="8" fill="#e0f7fa" stroke="#000" stroke-opacity="0.2" stroke-width="0.5"/>
    <rect x="88" y="80" width="8" height="8" fill="#e0f7fa" stroke="#000" stroke-opacity="0.2" stroke-width="0.5"/>
    <rect x="40" y="88" width="8" height="8" fill="#e0f7fa" stroke="#000" stroke-opacity="0.2" stroke-width="0.5"/>
    <rect x="48" y="88" width="8" height="8" fill="#e0f7fa" stroke="#000" stroke-opacity="0.2" stroke-width="0.5"/>
    <rect x="80" y="88" width="8" height="8" fill="#e0f7fa" stroke="#000" stroke-opacity="0.2" stroke-width="0.5"/>
    <rect x="88" y="88" width="8" height="8" fill="#e0f7fa" stroke="#000" stroke-opacity="0.2" stroke-width="0.5"/>
    </g>
    <g id="eyes">
    <rect x="40" y="48" width="8" height="8" fill="#006064"/>
    <rect x="48" y="48" width="8" height="8" fill="#006064"/>
    <rect x="80" y="48" width="8" height="8" fill="#006064"/>
    <rect x="88" y="48" width="8" height="8" fill="#006064"/>
    </g>
    <g id="extras">
    <rect x="16" y="32" width="8" height="8" fill="#fff" filter="url(#sgl)"><animate attributeName="opacity" values="0;1;0" dur="2s" begin="0s" repeatCount="indefinite"/></rect>
    <rect x="112" y="40" width="8" height="8" fill="#fff" filter="url(#sgl)"><animate attributeName="opacity" values="0;1;0" dur="2s" begin="0.5s" repeatCount="indefinite"/></rect>
    <rect x="24" y="80" width="8" height="8" fill="#fff" filter="url(#sgl)"><animate attributeName="opacity" values="0;1;0" dur="2s" begin="1.0s" repeatCount="indefinite"/></rect>
    <rect x="104" y="88" width="8" height="8" fill="#fff" filter="url(#sgl)"><animate attributeName="opacity" values="0;1;0" dur="2s" begin="1.5s" repeatCount="indefinite"/></rect>
    </g>
    </g>
  </g>
  </g>
</svg>