<svg xmlns="http://www.w3.org/2000/svg" viewBox="0 0 136 128" width="136" height="128">
<rect x="40" y="24" width="8" height="8" fill="#ff6f00" stroke="#e65100" stroke-width="0.5"/>
    <rect x="48" y="24" width="8" height="8" fill="#ff6f00" stroke="#e65100" stroke-width="0.5"/>
    <rect x="80" y="24" width="8" height="8" fill="#ff6f00" stroke="#e65100" stroke-width="0.5"/>
    <rect x="88" y="24" width="8" height="8" fill="#ff6f00" stroke="#e65100" stroke-width="0.5"/>
    <rect x="32" y="32" width="8" height="8" fill="#ff6f00" stroke="#e65100" stroke-width="0.5"/>
    <rect x="40" y="32" width="8" height="8" fill="#ff6f00" stroke="#e65100" stroke-width="0.5"/>
    <rect x="48" y="32" width="8" height="8" fill="#ff6f00" stroke="#e65100" stroke-width="0.5"/>
    <rect x="56" y="32" width="8" height="8" fill="#ff6f00" stroke="#e65100" stroke-width="0.5"/>
    <rect x="64" y="32" width="8" height="8" fill="#ff6f00" stroke="#e65100" stroke-width="0.5"/>
    <rect x="72" y="32" width="8" height="8" fill="#ff6f00" stroke="#e65100" stroke-width="0.5"/>
    <rect x="80" y="32" width="8" height="8" fill="#ff6f00" stroke="#e65100" stroke-width="0.5"/>
    <rect x="88" y="32" width="8" height="8" fill="#ff6f00" stroke="#e65100" stroke-width="0.5"/>
    <rect x="96" y="32" width="8" height="8" fill="#ff6f00" stroke="#e65100" stroke-width="0.5"/>
    <rect x="24" y="40" width="8" height="8" fill="#ff6f00" stroke="#e65100" stroke-width="0.5"/>
    <rect x="32" y="40" width="8" height="8" fill="#ff6f00" stroke="#e65100" stroke-width="0.5"/>
    <rect x="40" y="40" width="8" height="8" fill="#ff6f00" stroke="#e65100" stroke-width="0.5"/>
    <rect x="48" y="40" width="8" height="8" fill="#ff6f00" stroke="#e65100" stroke-width="0.5"/>
    <rect x="56" y="40" width="8" height="8" fill="#ff6f00" stroke="#e65100" stroke-width="0.5"/>
    <rect x="64" y="40" width="8" height="8" fill="#ff6f00" stroke="#e65100" stroke-width="0.5"/>
    <rect x="72" y="40" width="8" height="8" fill="#ff6f00" stroke="#e65100" stroke-width="0.5"/>
    <rect x="80" y="40" width="8" height="8" fill="#ff6f00" stroke="#e65100" stroke-width="0.5"/>
    <rect x="88" y="40" width="8" height="8" fill="#ff6f00" stroke="#e65100" stroke-width="0.5"/>
    <rect x="96" y="40" width="8" height="8" fill="#ff6f00" stroke="#e65100" stroke-width="0.5"/>
    <rect x="104" y="40" width="8" height="8" fill="#ff6f00" stroke="#e65100" stroke-width="0.5"/>
    <rect x="24" y="48" width="8" height="8" fill="#ff6f00" stroke="#e65100" stroke-width="0.5"/>
    <rect x="32" y="48" width="8" height="8" fill="#ff6f00" stroke="#e65100" stroke-width="0.5"/>
    <rect x="56" y="48" width="8" height="8" fill="#ff6f00" stroke="#e65100" stroke-width="0.5"/>
    <rect x="64" y="48" width="8" height="8" fill="#ff6f00" stroke="#e65100" stroke-width="0.5"/>
    <rect x="72" y="48" width="8" height="8" fill="#ff6f00" stroke="#e65100" stroke-width="0.5"/>
    <rect x="96" y="48" width="8" height="8" fill="#ff6f00" stroke="#e65100" stroke-width="0.5"/>
    <rect x="104" y="48" width="8" height="8" fill="#ff6f00" stroke="#e65100" stroke-width="0.5"/>
    <rect x="24" y="56" width="8" height="8" fill="#ff6f00" stroke="#e65100" stroke-width="0.5"/>
    <rect x="32" y="56" width="8" height="8" fill="#ff6f00" stroke="#e65100" stroke-width="0.5"/>
    <rect x="40" y="56" width="8" height="8" fill="#ff6f00" stroke="#e65100" stroke-width="0.5"/>
    <rect x="48" y="56" width="8" height="8" fill="#ff6f00" stroke="#e65100" stroke-width="0.5"/>
    <rect x="56" y="56" width="8" height="8" fill="#ff6f00" stroke="#e65100" stroke-width="0.5"/>
    <rect x="64" y="56" width="8" height="8" fill="#ff6f00" stroke="#e65100" stroke-width="0.5"/>
    <rect x="72" y="56" width="8" height="8" fill="#ff6f00" stroke="#e65100" stroke-width="0.5"/>
    <rect x="80" y="56" width="8" height="8" fill="#ff6f00" stroke="#e65100" stroke-width="0.5"/>
    <rect x="88" y="56" width="8" height="8" fill="#ff6f00" stroke="#e65100" stroke-width="0.5"/>
    <rect x="96" y="56" width="8" height="8" fill="#ff6f00" stroke="#e65100" stroke-width="0.5"/>
    <rect x="104" y="56" width="8" height="8" fill="#ff6f00" stroke="#e65100" stroke-width="0.5"/>
    <rect x="24" y="64" width="8" height="8" fill="#ff6f00" stroke="#e65100" stroke-width="0.5"/>
    <rect x="32" y="64" width="8" height="8" fill="#ff6f00" stroke="#e65100" stroke-width="0.5"/>
    <rect x="40" y="64" width="8" height="8" fill="#ff6f00" stroke="#e65100" stroke-width="0.5"/>
    <rect x="48" y="64" width="8" height="8" fill="#ff6f00" stroke="#e65100" stroke-width="0.5"/>
    <rect x="56" y="64" width="8" height="8" fill="#ff6f00" stroke="#e65100" stroke-width="0.5"/>
    <rect x="64" y="64" width="8" height="8" fill="#ff6f00" stroke="#e65100" stroke-width="0.5"/>
    <rect x="72" y="64" width="8" height="8" fill="#ff6f00" stroke="#e65100" stroke-width="0.5"/>
    <rect x="80" y="64" width="8" height="8" fill="#ff6f00" stroke="#e65100" stroke-width="0.5"/>
    <rect x="88" y="64" width="8" height="8" fill="#ff6f00" stroke="#e65100" stroke-width="0.5"/>
    <rect x="96" y="64" width="8" height="8" fill="#ff6f00" stroke="#e65100" stroke-width="0.5"/>
    <rect x="104" y="64" width="8" height="8" fill="#ff6f00" stroke="#e65100" stroke-width="0.5"/>
    <rect x="32" y="72" width="8" height="8" fill="#ff6f00" stroke="#e65100" stroke-width="0.5"/>
    <rect x="40" y="72" width="8" height="8" fill="#ff6f00" stroke="#e65100" stroke-width="0.5"/>
    <rect x="48" y="72" width="8" height="8" fill="#ff6f00" stroke="#e65100" stroke-width="0.5"/>
    <rect x="56" y="72" width="8" height="8" fill="#ff6f00" stroke="#e65100" stroke-width="0.5"/>
    <rect x="64" y="72" width="8" height="8" fill="#ff6f00" stroke="#e65100" stroke-width="0.5"/>
    <rect x="72" y="72" width="8" height="8" fill="#ff6f00" stroke="#e65100" stroke-width="0.5"/>
    <rect x="80" y="72" width="8" height="8" fill="#ff6f00" stroke="#e65100" stroke-width="0.5"/>
    <rect x="88" y="72" width="8" height="8" fill="#ff6f00" stroke="#e65100" stroke-width="0.5"/>
    <rect x="96" y="72" width="8" height="8" fill="#ff6f00" stroke="#e65100" stroke-width="0.5"/>
    <rect x="40" y="80" width="8" height="8" fill="#ff6f00" stroke="#e65100" stroke-width="0.5"/>
    <rect x="48" y="80" width="8" height="8" fill="#ff6f00" stroke="#e65100" stroke-width="0.5"/>
    <rect x="80" y="80" width="8" height="8" fill="#ff6f00" stroke="#e65100" stroke-width="0.5"/>
    <rect x="88" y="80" width="8" height="8" fill="#ff6f00" stroke="#e65100" stroke-width="0.5"/>
    <rect x="40" y="88" width="8" height="8" fill="#ff6f00" stroke="#e65100" stroke-width="0.5"/>
    <rect x="48" y="88" width="8" height="8" fill="#ff6f00" stroke="#e65100" stroke-width="0.5"/>
    <rect x="80" y="88" width="8" height="8" fill="#ff6f00" stroke="#e65100" stroke-width="0.5"/>
    <rect x="88" y="88" width="8" height="8" fill="#ff6f00" stroke="#e65100" stroke-width="0.5"/>
    <rect x="40" y="48" width="8" height="8" fill="#76ff03"/>
    <rect x="48" y="48" width="8" height="8" fill="#76ff03"/>
    <rect x="80" y="48" width="8" height="8" fill="#76ff03"/>
    <rect x="88" y="48" width="8" height="8" fill="#76ff03"/>
    
    <rect x="24" y="16" width="8" height="8" fill="#cc0000"/><rect x="32" y="8" width="8" height="8" fill="#ff1a1a"/><rect x="104" y="16" width="8" height="8" fill="#cc0000"/><rect x="96" y="8" width="8" height="8" fill="#ff1a1a"/>
</svg>