<svg xmlns="http://www.w3.org/2000/svg" viewBox="0 0 136 128" width="136" height="128">
  <defs><filter id="pg"><feGaussianBlur in="SourceGraphic" stdDeviation="2" result="b"/><feMerge><feMergeNode in="b"/><feMergeNode in="SourceGraphic"/></feMerge></filter><filter id="sglow"><feGaussianBlur in="SourceGraphic" stdDeviation="2" result="b"><animate attributeName="stdDeviation" values="2;3.5;2" dur="3s" repeatCount="indefinite"/></feGaussianBlur><feMerge><feMergeNode in="b"/><feMergeNode in="SourceGraphic"/></feMerge></filter></defs>
  <style>@keyframes breathe{0%,100%{transform:scale(1)}50%{transform:scale(1.02)}}#mascot{animation:breathe 3s ease-in-out infinite;transform-origin:68px 56px;}</style>
  <g id="mascot">
    <g id="body">
    <rect x="40" y="24" width="8" height="8" fill="#ff4081" filter="url(#pg)"/>
    <rect x="48" y="24" width="8" height="8" fill="#ff4081" filter="url(#pg)"/>
    <rect x="80" y="24" width="8" height="8" fill="#ff4081" filter="url(#pg)"/>
    <rect x="88" y="24" width="8" height="8" fill="#ff4081" filter="url(#pg)"/>
    <rect x="32" y="32" width="8" height="8" fill="#ff4081" filter="url(#pg)"/>
    <rect x="40" y="32" width="8" height="8" fill="#ff4081" filter="url(#pg)"/>
    <rect x="48" y="32" width="8" height="8" fill="#ff4081" filter="url(#pg)"/>
    <rect x="56" y="32" width="8" height="8" fill="#ff4081" filter="url(#pg)"/>
    <rect x="64" y="32" width="8" height="8" fill="#ff4081" filter="url(#pg)"/>
    <rect x="72" y="32" width="8" height="8" fill="#ff4081" filter="url(#pg)"/>
    <rect x="80" y="32" width="8" height="8" fill="#ff4081" filter="url(#pg)"/>
    <rect x="88" y="32" width="8" height="8" fill="#ff4081" filter="url(#pg)"/>
    <rect x="96" y="32" width="8" height="8" fill="#ff4081" filter="url(#pg)"/>
    <rect x="24" y="40" width="8" height="8" fill="#ff4081" filter="url(#pg)"/>
    <rect x="32" y="40" width="8" height="8" fill="#ff4081" filter="url(#pg)"/>
    <rect x="40" y="40" width="8" height="8" fill="#ff4081" filter="url(#pg)"/>
    <rect x="48" y="40" width="8" height="8" fill="#ff4081" filter="url(#pg)"/>
    <rect x="56" y="40" width="8" height="8" fill="#ff4081" filter="url(#pg)"/>
    <rect x="64" y="40" width="8" height="8" fill="#ff4081" filter="url(#pg)"/>
    <rect x="72" y="40" width="8" height="8" fill="#ff4081" filter="url(#pg)"/>
    <rect x="80" y="40" width="8" height="8" fill="#ff4081" filter="url(#pg)"/>
    <rect x="88" y="40" width="8" height="8" fill="#ff4081" filter="url(#pg)"/>
    <rect x="96" y="40" width="8" height="8" fill="#ff4081" filter="url(#pg)"/>
    <rect x="104" y="40" width="8" height="8" fill="#ff4081" filter="url(#pg)"/>
    <rect x="24" y="48" width="8" height="8" fill="#ff4081" filter="url(#pg)"/>
    <rect x="32" y="48" width="8" height="8" fill="#ff4081" filter="url(#pg)"/>
    <rect x="56" y="48" width="8" height="8" fill="#ff4081" filter="url(#pg)"/>
    <rect x="64" y="48" width="8" height="8" fill="#ff4081" filter="url(#pg)"/>
    <rect x="72" y="48" width="8" height="8" fill="#ff4081" filter="url(#pg)"/>
    <rect x="96" y="48" width="8" height="8" fill="#ff4081" filter="url(#pg)"/>
    <rect x="104" y="48" width="8" height="8" fill="#ff4081" filter="url(#pg)"/>
    <rect x="24" y="56" width="8" height="8" fill="#ff4081" filter="url(#pg)"/>
    <rect x="32" y="56" width="8" height="8" fill="#ff4081" filter="url(#pg)"/>
    <rect x="40" y="56" width="8" height="8" fill="#ff4081" filter="url(#pg)"/>
    <rect x="48" y="56" width="8" height="8" fill="#ff4081" filter="url(#pg)"/>
    <rect x="56" y="56" width="8" height="8" fill="#ff4081" filter="url(#pg)"/>
    <rect x="64" y="56" width="8" height="8" fill="#ff4081" filter="url(#pg)"/>
    <rect x="72" y="56" width="8" height="8" fill="#ff4081" filter="url(#pg)"/>
    <rect x="80" y="56" width="8" height="8" fill="#ff4081" filter="url(#pg)"/>
    <rect x="88" y="56" width="8" height="8" fill="#ff4081" filter="url(#pg)"/>
    <rect x="96" y="56" width="8" height="8" fill="#ff4081" filter="url(#pg)"/>
    <rect x="104" y="56" width="8" height="8" fill="#ff4081" filter="url(#pg)"/>
    <rect x="24" y="64" width="8" height="8" fill="#ff4081" filter="url(#pg)"/>
    <rect x="32" y="64" width="8" height="8" fill="#ff4081" filter="url(#pg)"/>
    <rect x="40" y="64" width="8" height="8" fill="#ff4081" filter="url(#pg)"/>
    <rect x="48" y="64" width="8" height="8" fill="#ff4081" filter="url(#pg)"/>
    <rect x="56" y="64" width="8" height="8" fill="#ff4081" filter="url(#pg)"/>
    <rect x="64" y="64" width="8" height="8" fill="#ff4081" filter="url(#pg)"/>
    <rect x="72" y="64" width="8" height="8" fill="#ff4081" filter="url(#pg)"/>
    <rect x="80" y="64" width="8" height="8" fill="#ff4081" filter="url(#pg)"/>
    <rect x="88" y="64" width="8" height="8" fill="#ff4081" filter="url(#pg)"/>
    <rect x="96" y="64" width="8" height="8" fill="#ff4081" filter="url(#pg)"/>
    <rect x="104" y="64" width="8" height="8" fill="#ff4081" filter="url(#pg)"/>
    <rect x="32" y="72" width="8" height="8" fill="#ff4081" filter="url(#pg)"/>
    <rect x="40" y="72" width="8" height="8" fill="#ff4081" filter="url(#pg)"/>
    <rect x="48" y="72" width="8" height="8" fill="#ff4081" filter="url(#pg)"/>
    <rect x="56" y="72" width="8" height="8" fill="#ff4081" filter="url(#pg)"/>
    <rect x="64" y="72" width="8" height="8" fill="#ff4081" filter="url(#pg)"/>
    <rect x="72" y="72" width="8" height="8" fill="#ff4081" filter="url(#pg)"/>
    <rect x="80" y="72" width="8" height="8" fill="#ff4081" filter="url(#pg)"/>
    <rect x="88" y="72" width="8" height="8" fill="#ff4081" filter="url(#pg)"/>
    <rect x="96" y="72" width="8" height="8" fill="#ff4081" filter="url(#pg)"/>
    <rect x="40" y="80" width="8" height="8" fill="#ff4081" filter="url(#pg)"/>
    <rect x="48" y="80" width="8" height="8" fill="#ff4081" filter="url(#pg)"/>
    <rect x="80" y="80" width="8" height="8" fill="#ff4081" filter="url(#pg)"/>
    <rect x="88" y="80" width="8" height="8" fill="#ff4081" filter="url(#pg)"/>
    <rect x="40" y="88" width="8" height="8" fill="#ff4081" filter="url(#pg)"/>
    <rect x="48" y="88" width="8" height="8" fill="#ff4081" filter="url(#pg)"/>
    <rect x="80" y="88" width="8" height="8" fill="#ff4081" filter="url(#pg)"/>
    <rect x="88" y="88" width="8" height="8" fill="#ff4081" filter="url(#pg)"/>
    </g>
    <g id="eyes">
    <rect x="40" y="48" width="8" height="8" fill="#1a0a12"/>
    <rect x="48" y="48" width="8" height="8" fill="#1a0a12"/>
    <rect x="80" y="48" width="8" height="8" fill="#1a0a12"/>
    <rect x="88" y="48" width="8" height="8" fill="#1a0a12"/>
    </g>
  </g>
</svg>