<svg xmlns="http://www.w3.org/2000/svg" viewBox="0 0 136 128" width="32" height="32">
  <defs><linearGradient id="sun" x1="0" y1="0" x2="0" y2="1"><stop offset="0%" stop-color="#ffcc02"/><stop offset="50%" stop-color="#ff6f00"/><stop offset="100%" stop-color="#e91e63"/></linearGradient></defs>
  <style>@keyframes breathe{0%,100%{transform:scale(1)}50%{transform:scale(1.02)}}#mascot{animation:breathe 3s ease-in-out infinite;transform-origin:68px 56px;}</style>
  <g id="mascot">
    <g id="body">
    <rect x="40" y="24" width="8" height="8" fill="url(#sun)"/>
    <rect x="48" y="24" width="8" height="8" fill="url(#sun)"/>
    <rect x="80" y="24" width="8" height="8" fill="url(#sun)"/>
    <rect x="88" y="24" width="8" height="8" fill="url(#sun)"/>
    <rect x="32" y="32" width="8" height="8" fill="url(#sun)"/>
    <rect x="40" y="32" width="8" height="8" fill="url(#sun)"/>
    <rect x="48" y="32" width="8" height="8" fill="url(#sun)"/>
    <rect x="56" y="32" width="8" height="8" fill="url(#sun)"/>
    <rect x="64" y="32" width="8" height="8" fill="url(#sun)"/>
    <rect x="72" y="32" width="8" height="8" fill="url(#sun)"/>
    <rect x="80" y="32" width="8" height="8" fill="url(#sun)"/>
    <rect x="88" y="32" width="8" height="8" fill="url(#sun)"/>
    <rect x="96" y="32" width="8" height="8" fill="url(#sun)"/>
    <rect x="24" y="40" width="8" height="8" fill="url(#sun)"/>
    <rect x="32" y="40" width="8" height="8" fill="url(#sun)"/>
    <rect x="40" y="40" width="8" height="8" fill="url(#sun)"/>
    <rect x="48" y="40" width="8" height="8" fill="url(#sun)"/>
    <rect x="56" y="40" width="8" height="8" fill="url(#sun)"/>
    <rect x="64" y="40" width="8" height="8" fill="url(#sun)"/>
    <rect x="72" y="40" width="8" height="8" fill="url(#sun)"/>
    <rect x="80" y="40" width="8" height="8" fill="url(#sun)"/>
    <rect x="88" y="40" width="8" height="8" fill="url(#sun)"/>
    <rect x="96" y="40" width="8" height="8" fill="url(#sun)"/>
    <rect x="104" y="40" width="8" height="8" fill="url(#sun)"/>
    <rect x="24" y="48" width="8" height="8" fill="url(#sun)"/>
    <rect x="32" y="48" width="8" height="8" fill="url(#sun)"/>
    <rect x="56" y="48" width="8" height="8" fill="url(#sun)"/>
    <rect x="64" y="48" width="8" height="8" fill="url(#sun)"/>
    <rect x="72" y="48" width="8" height="8" fill="url(#sun)"/>
    <rect x="96" y="48" width="8" height="8" fill="url(#sun)"/>
    <rect x="104" y="48" width="8" height="8" fill="url(#sun)"/>
    <rect x="24" y="56" width="8" height="8" fill="url(#sun)"/>
    <rect x="32" y="56" width="8" height="8" fill="url(#sun)"/>
    <rect x="40" y="56" width="8" height="8" fill="url(#sun)"/>
    <rect x="48" y="56" width="8" height="8" fill="url(#sun)"/>
    <rect x="56" y="56" width="8" height="8" fill="url(#sun)"/>
    <rect x="64" y="56" width="8" height="8" fill="url(#sun)"/>
    <rect x="72" y="56" width="8" height="8" fill="url(#sun)"/>
    <rect x="80" y="56" width="8" height="8" fill="url(#sun)"/>
    <rect x="88" y="56" width="8" height="8" fill="url(#sun)"/>
    <rect x="96" y="56" width="8" height="8" fill="url(#sun)"/>
    <rect x="104" y="56" width="8" height="8" fill="url(#sun)"/>
    <rect x="24" y="64" width="8" height="8" fill="url(#sun)"/>
    <rect x="32" y="64" width="8" height="8" fill="url(#sun)"/>
    <rect x="40" y="64" width="8" height="8" fill="url(#sun)"/>
    <rect x="48" y="64" width="8" height="8" fill="url(#sun)"/>
    <rect x="56" y="64" width="8" height="8" fill="url(#sun)"/>
    <rect x="64" y="64" width="8" height="8" fill="url(#sun)"/>
    <rect x="72" y="64" width="8" height="8" fill="url(#sun)"/>
    <rect x="80" y="64" width="8" height="8" fill="url(#sun)"/>
    <rect x="88" y="64" width="8" height="8" fill="url(#sun)"/>
    <rect x="96" y="64" width="8" height="8" fill="url(#sun)"/>
    <rect x="104" y="64" width="8" height="8" fill="url(#sun)"/>
    <rect x="32" y="72" width="8" height="8" fill="url(#sun)"/>
    <rect x="40" y="72" width="8" height="8" fill="url(#sun)"/>
    <rect x="48" y="72" width="8" height="8" fill="url(#sun)"/>
    <rect x="56" y="72" width="8" height="8" fill="url(#sun)"/>
    <rect x="64" y="72" width="8" height="8" fill="url(#sun)"/>
    <rect x="72" y="72" width="8" height="8" fill="url(#sun)"/>
    <rect x="80" y="72" width="8" height="8" fill="url(#sun)"/>
    <rect x="88" y="72" width="8" height="8" fill="url(#sun)"/>
    <rect x="96" y="72" width="8" height="8" fill="url(#sun)"/>
    <rect x="40" y="80" width="8" height="8" fill="url(#sun)"/>
    <rect x="48" y="80" width="8" height="8" fill="url(#sun)"/>
    <rect x="80" y="80" width="8" height="8" fill="url(#sun)"/>
    <rect x="88" y="80" width="8" height="8" fill="url(#sun)"/>
    <rect x="40" y="88" width="8" height="8" fill="url(#sun)"/>
    <rect x="48" y="88" width="8" height="8" fill="url(#sun)"/>
    <rect x="80" y="88" width="8" height="8" fill="url(#sun)"/>
    <rect x="88" y="88" width="8" height="8" fill="url(#sun)"/>
    </g>
    <g id="eyes">
    <rect x="40" y="48" width="8" height="8" fill="#1a0a05"/>
    <rect x="48" y="48" width="8" height="8" fill="#1a0a05"/>
    <rect x="80" y="48" width="8" height="8" fill="#1a0a05"/>
    <rect x="88" y="48" width="8" height="8" fill="#1a0a05"/>
    </g>
  </g>
</svg>